<svg width="24" height="24" viewBox="0 0 24 24" fill="none" xmlns="http://www.w3.org/2000/svg">
<path d="M15.8311 2C16.3614 2 16.8701 2.21101 17.2451 2.58594L21.7246 7.06543C22.0996 7.44044 22.3105 7.9492 22.3105 8.47949V20C22.3105 21.1046 21.4151 22 20.3105 22H8.31055C7.20598 22 6.31055 21.1046 6.31055 20C6.31065 19.5859 6.6464 19.25 7.06055 19.25C7.47469 19.25 7.81044 19.5859 7.81055 20C7.81055 20.2761 8.03441 20.5 8.31055 20.5H20.3105C20.5867 20.5 20.8105 20.2761 20.8105 20V8.47949C20.8105 8.34702 20.7577 8.21968 20.6641 8.12598L16.1846 3.64648C16.0908 3.55286 15.9636 3.5 15.8311 3.5H7.06055C6.64633 3.5 6.31055 3.16421 6.31055 2.75C6.31065 2.33588 6.6464 2 7.06055 2H15.8311Z" fill="#2859FE"/>
<path d="M10.0742 11.166C10.4192 11.1661 10.6991 11.446 10.6992 11.791V15.2324H11.5244C11.8696 15.2324 12.1494 15.5122 12.1494 15.8574C12.1494 16.2026 11.8696 16.4824 11.5244 16.4824H2.625C2.27983 16.4824 2.00002 16.2026 2 15.8574C2 15.5122 2.27982 15.2324 2.625 15.2324H3.45117V11.791C3.45128 11.4459 3.73106 11.166 4.07617 11.166C4.42106 11.1663 4.70107 11.4461 4.70117 11.791V15.2324H6.4502V11.791C6.4503 11.4459 6.73008 11.166 7.0752 11.166C7.42008 11.1663 7.70009 11.4461 7.7002 11.791V15.2324H9.44922V11.791C9.44932 11.4459 9.72911 11.166 10.0742 11.166Z" fill="#2859FE"/>
<path d="M6.75488 6.25C6.95558 6.14829 7.1929 6.14818 7.39355 6.25L11.6797 8.42676C12.3416 8.76293 12.1026 9.76152 11.3604 9.76172L2.78809 9.76074C2.04583 9.76036 1.80679 8.76083 2.46875 8.4248L6.75488 6.25Z" fill="#2859FE"/>
</svg>
