<svg width="24" height="24" viewBox="0 0 24 24" fill="none" xmlns="http://www.w3.org/2000/svg">
<path d="M14.3945 3.12138C14.8001 3.12141 15.1238 3.44526 15.124 3.85087V5.69267C15.124 6.09312 14.8048 6.43188 14.3945 6.43192H13.8613V7.18192H16.5215C17.213 7.182 17.7577 7.74154 17.7578 8.41923V9.33329C17.7578 9.89587 17.3845 10.3736 16.8633 10.5208V17.5364C17.3848 17.6839 17.7578 18.1644 17.7578 18.7249V19.6399C17.7578 20.3287 17.2111 20.8782 16.5215 20.8782H8.03613C7.34576 20.8782 6.7998 20.3286 6.7998 19.6399V18.7249C6.7998 18.1636 7.17365 17.6836 7.69531 17.5364V10.5208C7.17394 10.3737 6.7998 9.896 6.7998 9.33329V8.41923C6.79995 7.74143 7.34547 7.18198 8.03613 7.18192H10.6963V6.43192H10.1631C9.75301 6.4319 9.43359 6.09406 9.43359 5.69267V3.85087C9.43378 3.44528 9.75743 3.1214 10.1631 3.12138H14.3945ZM8.03613 18.3645C7.83059 18.3645 7.66699 18.5324 7.66699 18.7249V19.6399C7.66699 19.8434 7.83267 20.0091 8.03613 20.0091H16.5225C16.7256 20.0088 16.8914 19.8431 16.8916 19.6399V19.3118L16.8906 19.3138V18.7249C16.8906 18.5324 16.727 18.3646 16.5215 18.3645H8.03613ZM8.57227 17.4866H15.9844V10.5716H8.57227V17.4866ZM8.03613 8.05888C7.83034 8.05888 7.66714 8.2257 7.66699 8.41923V9.33329C7.66699 9.5395 7.83318 9.70536 8.03613 9.70536H16.5215C16.7244 9.70533 16.8906 9.53949 16.8906 9.33329V8.41923C16.8905 8.22515 16.7274 8.05891 16.5215 8.05888H8.03613ZM11.5742 7.18192H12.9834V6.43192H11.5742V7.18192ZM10.3027 5.55399H14.2559V3.99052H10.3027V5.55399Z" fill="#2859FE" stroke="#2859FE" stroke-width="0.4"/>
</svg>
