<svg width="24" height="24" viewBox="0 0 24 24" fill="none" xmlns="http://www.w3.org/2000/svg">
<path d="M18.1689 4C19.2929 4 20.3228 4.62842 20.8369 5.62793L22.4463 8.75684C22.8101 9.4642 23 10.2485 23 11.0439V16C23 17.0356 22.2128 17.887 21.2041 17.9893L21 18H20.8262C20.4141 19.1647 19.3059 20 18 20C16.6941 20 15.5859 19.1647 15.1738 18H8.82617C8.41406 19.1647 7.30585 20 6 20C4.64506 20 3.50028 19.1017 3.12793 17.8682C1.94392 17.5086 1.06902 16.4396 1.00391 15.1543L1 15V7C1 5.39489 2.26055 4.08421 3.8457 4.00391L4 4H18.1689ZM6 15.5C5.17157 15.5 4.5 16.1716 4.5 17C4.5 17.8284 5.17157 18.5 6 18.5C6.82843 18.5 7.5 17.8284 7.5 17C7.5 16.1716 6.82843 15.5 6 15.5ZM18 15.5C17.1716 15.5 16.5 16.1716 16.5 17C16.5 17.8284 17.1716 18.5 18 18.5C18.8284 18.5 19.5 17.8284 19.5 17C19.5 16.1716 18.8284 15.5 18 15.5ZM2.5 15C2.5 15.4945 2.74026 15.9318 3.10938 16.2051C3.45802 14.9344 4.61862 14 6 14C7.48647 14 8.71993 15.0812 8.95801 16.5H15.042C15.2801 15.0812 16.5135 14 18 14C19.4865 14 20.7199 15.0812 20.958 16.5H21C21.2761 16.5 21.5 16.2761 21.5 16V11.9131C16.2744 10.7642 10.1066 10.4143 2.5 10.3994V15ZM17 9.62891C18.5442 9.82373 20.0184 10.0658 21.4307 10.3633C21.3673 10.0444 21.262 9.7344 21.1123 9.44336L19.5029 6.31445C19.2459 5.81465 18.731 5.5 18.1689 5.5H17V9.62891ZM4 5.5C3.17157 5.5 2.5 6.17157 2.5 7V8.89941C7.33126 8.90877 11.6292 9.05033 15.5 9.4541V5.5H4Z" fill="#2859FE"/>
</svg>
