<svg width="24" height="24" viewBox="0 0 24 24" fill="none" xmlns="http://www.w3.org/2000/svg">
<path fill-rule="evenodd" clip-rule="evenodd" d="M12.126 3C16.0311 3.00012 19.1973 6.16613 19.1973 10.0713V17.4453H21.207C21.621 17.4455 21.957 17.7812 21.957 18.1953V20.1953C21.957 21.1617 21.1733 21.9451 20.207 21.9453H3.75C2.7835 21.9453 2 21.1618 2 20.1953V18.1953C2 17.7811 2.33579 17.4453 2.75 17.4453H5.05469V10.0713C5.05469 6.16605 8.22074 3 12.126 3ZM3.5 20.1953C3.5 20.3334 3.61193 20.4453 3.75 20.4453H20.207C20.3449 20.4451 20.457 20.3332 20.457 20.1953V18.9453H18.4668C18.4603 18.9455 18.4538 18.9463 18.4473 18.9463H5.80469C5.79815 18.9463 5.79165 18.9455 5.78516 18.9453H3.5V20.1953ZM12.126 4.5C9.04916 4.5 6.55469 6.99448 6.55469 10.0713V17.4453H17.6973V10.0713C17.6973 6.99455 15.2027 4.50012 12.126 4.5Z" fill="#2859FE"/>
</svg>
