<svg width="24" height="24" viewBox="0 0 24 24" fill="none" xmlns="http://www.w3.org/2000/svg">
<path d="M15 2C16.6051 2 17.9158 3.26055 17.9961 4.8457L18 5V7.99609H19L19.1543 8C20.6883 8.07772 21.9184 9.30775 21.9961 10.8418L22 10.9961V20.999L21.9912 21.1377C21.9002 21.8125 21.1519 22.2151 20.5273 21.8799L17 19.9863H9C7.39492 19.9863 6.08424 18.7257 6.00391 17.1406L6 16.9863V14.4883L3.44727 15.7646C2.82394 16.076 2.09714 15.6702 2.00879 15.0059L2 14.8701V5L2.00391 4.8457C2.08162 3.31166 3.31166 2.08163 4.8457 2.00391L5 2H15ZM18 10.9893C18 12.6461 16.6569 13.9893 15 13.9893H7.5V16.9863C7.50003 17.8147 8.17159 18.4863 9 18.4863H17.377L17.71 18.665L20.5 20.1631V10.9961C20.5 10.1677 19.8284 9.49609 19 9.49609H18V10.9893ZM3.5 14.0615L6.33008 12.6475L6.64648 12.4893H15C15.8284 12.4893 16.5 11.8177 16.5 10.9893V5C16.5 4.17157 15.8284 3.5 15 3.5H5C4.17157 3.5 3.5 4.17157 3.5 5V14.0615Z" fill="#2859FE"/>
</svg>
