<svg width="24" height="24" viewBox="0 0 24 24" fill="none" xmlns="http://www.w3.org/2000/svg">
<path d="M14.9619 3.00177C15.376 3.00188 15.7118 3.3377 15.7119 3.75177C15.7119 4.16591 15.376 4.50166 14.9619 4.50177H4.75C4.0597 4.50177 3.50009 5.06149 3.5 5.75177V18.2518C3.5 18.9421 4.05964 19.5018 4.75 19.5018H17.25C17.9404 19.5018 18.5 18.9421 18.5 18.2518V12.3817C18.5001 11.9675 18.8358 11.6317 19.25 11.6317C19.6642 11.6317 19.9999 11.9675 20 12.3817V18.2518C20 19.7706 18.7688 21.0018 17.25 21.0018H4.75C3.23122 21.0018 2 19.7706 2 18.2518V5.75177C2.00009 4.23306 3.23127 3.00177 4.75 3.00177H14.9619ZM20.9346 2.99982C21.2272 2.70715 21.7025 2.70715 21.9951 2.99982C22.2875 3.29274 22.2873 3.76827 21.9951 4.06134L11.5371 14.532C11.3966 14.6726 11.2055 14.7518 11.0068 14.7518C10.858 14.7516 10.7138 14.7072 10.5918 14.6258L10.4766 14.532L6 10.0477C5.70747 9.75467 5.70762 9.27921 6 8.98615C6.29268 8.69359 6.76701 8.69346 7.05957 8.98615L11.0068 12.9402L20.9346 2.99982Z" fill="#2859FE"/>
</svg>
