<svg width="106" height="106" viewBox="0 0 106 106" fill="none" xmlns="http://www.w3.org/2000/svg">
<path d="M58.4546 0.272949H54.8182V3.90931H58.4546V0.272949Z" fill="black"/>
<path d="M62.0909 0.272949H58.4546V3.90931H62.0909V0.272949Z" fill="black"/>
<path d="M69.3636 0.272949H65.7273V3.90931H69.3636V0.272949Z" fill="black"/>
<path d="M33 3.90918H29.3636V7.54554H33V3.90918Z" fill="black"/>
<path d="M36.6364 3.90918H33V7.54554H36.6364V3.90918Z" fill="black"/>
<path d="M43.9091 3.90918H40.2727V7.54554H43.9091V3.90918Z" fill="black"/>
<path d="M47.5455 3.90918H43.9091V7.54554H47.5455V3.90918Z" fill="black"/>
<path d="M51.1818 3.90918H47.5455V7.54554H51.1818V3.90918Z" fill="black"/>
<path d="M54.8182 3.90918H51.1818V7.54554H54.8182V3.90918Z" fill="black"/>
<path d="M62.0909 3.90918H58.4546V7.54554H62.0909V3.90918Z" fill="black"/>
<path d="M65.7273 3.90918H62.0909V7.54554H65.7273V3.90918Z" fill="black"/>
<path d="M33 7.5459H29.3636V11.1823H33V7.5459Z" fill="black"/>
<path d="M36.6364 7.5459H33V11.1823H36.6364V7.5459Z" fill="black"/>
<path d="M40.2727 7.5459H36.6364V11.1823H40.2727V7.5459Z" fill="black"/>
<path d="M51.1818 7.5459H47.5455V11.1823H51.1818V7.5459Z" fill="black"/>
<path d="M58.4546 7.5459H54.8182V11.1823H58.4546V7.5459Z" fill="black"/>
<path d="M73 7.5459H69.3636V11.1823H73V7.5459Z" fill="black"/>
<path d="M76.6364 7.5459H73V11.1823H76.6364V7.5459Z" fill="black"/>
<path d="M33 11.1821H29.3636V14.8185H33V11.1821Z" fill="black"/>
<path d="M36.6364 11.1821H33V14.8185H36.6364V11.1821Z" fill="black"/>
<path d="M40.2727 11.1821H36.6364V14.8185H40.2727V11.1821Z" fill="black"/>
<path d="M43.9091 11.1821H40.2727V14.8185H43.9091V11.1821Z" fill="black"/>
<path d="M62.0909 11.1821H58.4546V14.8185H62.0909V11.1821Z" fill="black"/>
<path d="M65.7273 11.1821H62.0909V14.8185H65.7273V11.1821Z" fill="black"/>
<path d="M73 11.1821H69.3636V14.8185H73V11.1821Z" fill="black"/>
<path d="M76.6364 11.1821H73V14.8185H76.6364V11.1821Z" fill="black"/>
<path d="M36.6364 14.8184H33V18.4547H36.6364V14.8184Z" fill="black"/>
<path d="M40.2727 14.8184H36.6364V18.4547H40.2727V14.8184Z" fill="black"/>
<path d="M43.9091 14.8184H40.2727V18.4547H43.9091V14.8184Z" fill="black"/>
<path d="M47.5455 14.8184H43.9091V18.4547H47.5455V14.8184Z" fill="black"/>
<path d="M58.4546 14.8184H54.8182V18.4547H58.4546V14.8184Z" fill="black"/>
<path d="M62.0909 14.8184H58.4546V18.4547H62.0909V14.8184Z" fill="black"/>
<path d="M73 14.8184H69.3636V18.4547H73V14.8184Z" fill="black"/>
<path d="M76.6364 14.8184H73V18.4547H76.6364V14.8184Z" fill="black"/>
<path d="M36.6364 18.4546H33V22.091H36.6364V18.4546Z" fill="black"/>
<path d="M40.2727 18.4546H36.6364V22.091H40.2727V18.4546Z" fill="black"/>
<path d="M43.9091 18.4546H40.2727V22.091H43.9091V18.4546Z" fill="black"/>
<path d="M58.4546 18.4546H54.8182V22.091H58.4546V18.4546Z" fill="black"/>
<path d="M65.7273 18.4546H62.0909V22.091H65.7273V18.4546Z" fill="black"/>
<path d="M76.6364 18.4546H73V22.091H76.6364V18.4546Z" fill="black"/>
<path d="M33 22.0913H29.3636V25.7277H33V22.0913Z" fill="black"/>
<path d="M40.2727 22.0913H36.6364V25.7277H40.2727V22.0913Z" fill="black"/>
<path d="M47.5455 22.0913H43.9091V25.7277H47.5455V22.0913Z" fill="black"/>
<path d="M54.8182 22.0913H51.1818V25.7277H54.8182V22.0913Z" fill="black"/>
<path d="M62.0909 22.0913H58.4546V25.7277H62.0909V22.0913Z" fill="black"/>
<path d="M69.3636 22.0913H65.7273V25.7277H69.3636V22.0913Z" fill="black"/>
<path d="M76.6364 22.0913H73V25.7277H76.6364V22.0913Z" fill="black"/>
<path d="M33 25.7275H29.3636V29.3639H33V25.7275Z" fill="black"/>
<path d="M47.5455 25.7275H43.9091V29.3639H47.5455V25.7275Z" fill="black"/>
<path d="M54.8182 25.7275H51.1818V29.3639H54.8182V25.7275Z" fill="black"/>
<path d="M58.4546 25.7275H54.8182V29.3639H58.4546V25.7275Z" fill="black"/>
<path d="M62.0909 25.7275H58.4546V29.3639H62.0909V25.7275Z" fill="black"/>
<path d="M69.3636 25.7275H65.7273V29.3639H69.3636V25.7275Z" fill="black"/>
<path d="M73 25.7275H69.3636V29.3639H73V25.7275Z" fill="black"/>
<path d="M3.9091 29.3638H0.272736V33.0001H3.9091V29.3638Z" fill="black"/>
<path d="M25.7273 29.3638H22.0909V33.0001H25.7273V29.3638Z" fill="black"/>
<path d="M33 29.3638H29.3636V33.0001H33V29.3638Z" fill="black"/>
<path d="M36.6364 29.3638H33V33.0001H36.6364V29.3638Z" fill="black"/>
<path d="M43.9091 29.3638H40.2727V33.0001H43.9091V29.3638Z" fill="black"/>
<path d="M62.0909 29.3638H58.4546V33.0001H62.0909V29.3638Z" fill="black"/>
<path d="M65.7273 29.3638H62.0909V33.0001H65.7273V29.3638Z" fill="black"/>
<path d="M76.6364 29.3638H73V33.0001H76.6364V29.3638Z" fill="black"/>
<path d="M80.2727 29.3638H76.6364V33.0001H80.2727V29.3638Z" fill="black"/>
<path d="M83.9091 29.3638H80.2727V33.0001H83.9091V29.3638Z" fill="black"/>
<path d="M94.8182 29.3638H91.1818V33.0001H94.8182V29.3638Z" fill="black"/>
<path d="M98.4546 29.3638H94.8182V33.0001H98.4546V29.3638Z" fill="black"/>
<path d="M102.091 29.3638H98.4546V33.0001H102.091V29.3638Z" fill="black"/>
<path d="M7.54547 33H3.9091V36.6364H7.54547V33Z" fill="black"/>
<path d="M14.8182 33H11.1818V36.6364H14.8182V33Z" fill="black"/>
<path d="M29.3636 33H25.7273V36.6364H29.3636V33Z" fill="black"/>
<path d="M40.2727 33H36.6364V36.6364H40.2727V33Z" fill="black"/>
<path d="M43.9091 33H40.2727V36.6364H43.9091V33Z" fill="black"/>
<path d="M51.1818 33H47.5455V36.6364H51.1818V33Z" fill="black"/>
<path d="M62.0909 33H58.4546V36.6364H62.0909V33Z" fill="black"/>
<path d="M69.3636 33H65.7273V36.6364H69.3636V33Z" fill="black"/>
<path d="M73 33H69.3636V36.6364H73V33Z" fill="black"/>
<path d="M87.5455 33H83.9091V36.6364H87.5455V33Z" fill="black"/>
<path d="M91.1818 33H87.5455V36.6364H91.1818V33Z" fill="black"/>
<path d="M98.4546 33H94.8182V36.6364H98.4546V33Z" fill="black"/>
<path d="M102.091 33H98.4546V36.6364H102.091V33Z" fill="black"/>
<path d="M7.54547 36.6367H3.9091V40.2731H7.54547V36.6367Z" fill="black"/>
<path d="M11.1818 36.6367H7.54546V40.2731H11.1818V36.6367Z" fill="black"/>
<path d="M14.8182 36.6367H11.1818V40.2731H14.8182V36.6367Z" fill="black"/>
<path d="M25.7273 36.6367H22.0909V40.2731H25.7273V36.6367Z" fill="black"/>
<path d="M33 36.6367H29.3636V40.2731H33V36.6367Z" fill="black"/>
<path d="M51.1818 36.6367H47.5455V40.2731H51.1818V36.6367Z" fill="black"/>
<path d="M54.8182 36.6367H51.1818V40.2731H54.8182V36.6367Z" fill="black"/>
<path d="M58.4546 36.6367H54.8182V40.2731H58.4546V36.6367Z" fill="black"/>
<path d="M62.0909 36.6367H58.4546V40.2731H62.0909V36.6367Z" fill="black"/>
<path d="M69.3636 36.6367H65.7273V40.2731H69.3636V36.6367Z" fill="black"/>
<path d="M76.6364 36.6367H73V40.2731H76.6364V36.6367Z" fill="black"/>
<path d="M80.2727 36.6367H76.6364V40.2731H80.2727V36.6367Z" fill="black"/>
<path d="M83.9091 36.6367H80.2727V40.2731H83.9091V36.6367Z" fill="black"/>
<path d="M91.1818 36.6367H87.5455V40.2731H91.1818V36.6367Z" fill="black"/>
<path d="M3.9091 40.2729H0.272736V43.9093H3.9091V40.2729Z" fill="black"/>
<path d="M7.54547 40.2729H3.9091V43.9093H7.54547V40.2729Z" fill="black"/>
<path d="M22.0909 40.2729H18.4546V43.9093H22.0909V40.2729Z" fill="black"/>
<path d="M47.5455 40.2729H43.9091V43.9093H47.5455V40.2729Z" fill="black"/>
<path d="M51.1818 40.2729H47.5455V43.9093H51.1818V40.2729Z" fill="black"/>
<path d="M73 40.2729H69.3636V43.9093H73V40.2729Z" fill="black"/>
<path d="M76.6364 40.2729H73V43.9093H76.6364V40.2729Z" fill="black"/>
<path d="M80.2727 40.2729H76.6364V43.9093H80.2727V40.2729Z" fill="black"/>
<path d="M87.5455 40.2729H83.9091V43.9093H87.5455V40.2729Z" fill="black"/>
<path d="M94.8182 40.2729H91.1818V43.9093H94.8182V40.2729Z" fill="black"/>
<path d="M11.1818 43.9092H7.54546V47.5455H11.1818V43.9092Z" fill="black"/>
<path d="M18.4546 43.9092H14.8182V47.5455H18.4546V43.9092Z" fill="black"/>
<path d="M25.7273 43.9092H22.0909V47.5455H25.7273V43.9092Z" fill="black"/>
<path d="M33 43.9092H29.3636V47.5455H33V43.9092Z" fill="black"/>
<path d="M40.2727 43.9092H36.6364V47.5455H40.2727V43.9092Z" fill="black"/>
<path d="M43.9091 43.9092H40.2727V47.5455H43.9091V43.9092Z" fill="black"/>
<path d="M51.1818 43.9092H47.5455V47.5455H51.1818V43.9092Z" fill="black"/>
<path d="M58.4546 43.9092H54.8182V47.5455H58.4546V43.9092Z" fill="black"/>
<path d="M62.0909 43.9092H58.4546V47.5455H62.0909V43.9092Z" fill="black"/>
<path d="M65.7273 43.9092H62.0909V47.5455H65.7273V43.9092Z" fill="black"/>
<path d="M76.6364 43.9092H73V47.5455H76.6364V43.9092Z" fill="black"/>
<path d="M83.9091 43.9092H80.2727V47.5455H83.9091V43.9092Z" fill="black"/>
<path d="M87.5455 43.9092H83.9091V47.5455H87.5455V43.9092Z" fill="black"/>
<path d="M105.727 43.9092H102.091V47.5455H105.727V43.9092Z" fill="black"/>
<path d="M11.1818 47.5459H7.54546V51.1823H11.1818V47.5459Z" fill="black"/>
<path d="M14.8182 47.5459H11.1818V51.1823H14.8182V47.5459Z" fill="black"/>
<path d="M18.4546 47.5459H14.8182V51.1823H18.4546V47.5459Z" fill="black"/>
<path d="M22.0909 47.5459H18.4546V51.1823H22.0909V47.5459Z" fill="black"/>
<path d="M40.2727 47.5459H36.6364V51.1823H40.2727V47.5459Z" fill="black"/>
<path d="M62.0909 47.5459H58.4546V51.1823H62.0909V47.5459Z" fill="black"/>
<path d="M65.7273 47.5459H62.0909V51.1823H65.7273V47.5459Z" fill="black"/>
<path d="M73 47.5459H69.3636V51.1823H73V47.5459Z" fill="black"/>
<path d="M76.6364 47.5459H73V51.1823H76.6364V47.5459Z" fill="black"/>
<path d="M83.9091 47.5459H80.2727V51.1823H83.9091V47.5459Z" fill="black"/>
<path d="M87.5455 47.5459H83.9091V51.1823H87.5455V47.5459Z" fill="black"/>
<path d="M91.1818 47.5459H87.5455V51.1823H91.1818V47.5459Z" fill="black"/>
<path d="M102.091 47.5459H98.4546V51.1823H102.091V47.5459Z" fill="black"/>
<path d="M105.727 47.5459H102.091V51.1823H105.727V47.5459Z" fill="black"/>
<path d="M22.0909 51.1821H18.4546V54.8185H22.0909V51.1821Z" fill="black"/>
<path d="M25.7273 51.1821H22.0909V54.8185H25.7273V51.1821Z" fill="black"/>
<path d="M29.3636 51.1821H25.7273V54.8185H29.3636V51.1821Z" fill="black"/>
<path d="M36.6364 51.1821H33V54.8185H36.6364V51.1821Z" fill="black"/>
<path d="M40.2727 51.1821H36.6364V54.8185H40.2727V51.1821Z" fill="black"/>
<path d="M43.9091 51.1821H40.2727V54.8185H43.9091V51.1821Z" fill="black"/>
<path d="M65.7273 51.1821H62.0909V54.8185H65.7273V51.1821Z" fill="black"/>
<path d="M76.6364 51.1821H73V54.8185H76.6364V51.1821Z" fill="black"/>
<path d="M83.9091 51.1821H80.2727V54.8185H83.9091V51.1821Z" fill="black"/>
<path d="M91.1818 51.1821H87.5455V54.8185H91.1818V51.1821Z" fill="black"/>
<path d="M94.8182 51.1821H91.1818V54.8185H94.8182V51.1821Z" fill="black"/>
<path d="M98.4546 51.1821H94.8182V54.8185H98.4546V51.1821Z" fill="black"/>
<path d="M7.54547 54.8184H3.9091V58.4547H7.54547V54.8184Z" fill="black"/>
<path d="M18.4546 54.8184H14.8182V58.4547H18.4546V54.8184Z" fill="black"/>
<path d="M22.0909 54.8184H18.4546V58.4547H22.0909V54.8184Z" fill="black"/>
<path d="M33 54.8184H29.3636V58.4547H33V54.8184Z" fill="black"/>
<path d="M40.2727 54.8184H36.6364V58.4547H40.2727V54.8184Z" fill="black"/>
<path d="M58.4546 54.8184H54.8182V58.4547H58.4546V54.8184Z" fill="black"/>
<path d="M73 54.8184H69.3636V58.4547H73V54.8184Z" fill="black"/>
<path d="M91.1818 54.8184H87.5455V58.4547H91.1818V54.8184Z" fill="black"/>
<path d="M98.4546 54.8184H94.8182V58.4547H98.4546V54.8184Z" fill="black"/>
<path d="M105.727 54.8184H102.091V58.4547H105.727V54.8184Z" fill="black"/>
<path d="M18.4546 58.4546H14.8182V62.091H18.4546V58.4546Z" fill="black"/>
<path d="M25.7273 58.4546H22.0909V62.091H25.7273V58.4546Z" fill="black"/>
<path d="M40.2727 58.4546H36.6364V62.091H40.2727V58.4546Z" fill="black"/>
<path d="M47.5455 58.4546H43.9091V62.091H47.5455V58.4546Z" fill="black"/>
<path d="M65.7273 58.4546H62.0909V62.091H65.7273V58.4546Z" fill="black"/>
<path d="M73 58.4546H69.3636V62.091H73V58.4546Z" fill="black"/>
<path d="M87.5455 58.4546H83.9091V62.091H87.5455V58.4546Z" fill="black"/>
<path d="M94.8182 58.4546H91.1818V62.091H94.8182V58.4546Z" fill="black"/>
<path d="M98.4546 58.4546H94.8182V62.091H98.4546V58.4546Z" fill="black"/>
<path d="M3.9091 62.0913H0.272736V65.7277H3.9091V62.0913Z" fill="black"/>
<path d="M7.54547 62.0913H3.9091V65.7277H7.54547V62.0913Z" fill="black"/>
<path d="M11.1818 62.0913H7.54546V65.7277H11.1818V62.0913Z" fill="black"/>
<path d="M40.2727 62.0913H36.6364V65.7277H40.2727V62.0913Z" fill="black"/>
<path d="M51.1818 62.0913H47.5455V65.7277H51.1818V62.0913Z" fill="black"/>
<path d="M54.8182 62.0913H51.1818V65.7277H54.8182V62.0913Z" fill="black"/>
<path d="M65.7273 62.0913H62.0909V65.7277H65.7273V62.0913Z" fill="black"/>
<path d="M73 62.0913H69.3636V65.7277H73V62.0913Z" fill="black"/>
<path d="M83.9091 62.0913H80.2727V65.7277H83.9091V62.0913Z" fill="black"/>
<path d="M87.5455 62.0913H83.9091V65.7277H87.5455V62.0913Z" fill="black"/>
<path d="M91.1818 62.0913H87.5455V65.7277H91.1818V62.0913Z" fill="black"/>
<path d="M98.4546 62.0913H94.8182V65.7277H98.4546V62.0913Z" fill="black"/>
<path d="M102.091 62.0913H98.4546V65.7277H102.091V62.0913Z" fill="black"/>
<path d="M105.727 62.0913H102.091V65.7277H105.727V62.0913Z" fill="black"/>
<path d="M3.9091 65.7275H0.272736V69.3639H3.9091V65.7275Z" fill="black"/>
<path d="M7.54547 65.7275H3.9091V69.3639H7.54547V65.7275Z" fill="black"/>
<path d="M11.1818 65.7275H7.54546V69.3639H11.1818V65.7275Z" fill="black"/>
<path d="M18.4546 65.7275H14.8182V69.3639H18.4546V65.7275Z" fill="black"/>
<path d="M25.7273 65.7275H22.0909V69.3639H25.7273V65.7275Z" fill="black"/>
<path d="M29.3636 65.7275H25.7273V69.3639H29.3636V65.7275Z" fill="black"/>
<path d="M33 65.7275H29.3636V69.3639H33V65.7275Z" fill="black"/>
<path d="M36.6364 65.7275H33V69.3639H36.6364V65.7275Z" fill="black"/>
<path d="M43.9091 65.7275H40.2727V69.3639H43.9091V65.7275Z" fill="black"/>
<path d="M58.4546 65.7275H54.8182V69.3639H58.4546V65.7275Z" fill="black"/>
<path d="M69.3636 65.7275H65.7273V69.3639H69.3636V65.7275Z" fill="black"/>
<path d="M73 65.7275H69.3636V69.3639H73V65.7275Z" fill="black"/>
<path d="M80.2727 65.7275H76.6364V69.3639H80.2727V65.7275Z" fill="black"/>
<path d="M91.1818 65.7275H87.5455V69.3639H91.1818V65.7275Z" fill="black"/>
<path d="M94.8182 65.7275H91.1818V69.3639H94.8182V65.7275Z" fill="black"/>
<path d="M105.727 65.7275H102.091V69.3639H105.727V65.7275Z" fill="black"/>
<path d="M3.9091 69.3638H0.272736V73.0001H3.9091V69.3638Z" fill="black"/>
<path d="M22.0909 69.3638H18.4546V73.0001H22.0909V69.3638Z" fill="black"/>
<path d="M33 69.3638H29.3636V73.0001H33V69.3638Z" fill="black"/>
<path d="M51.1818 69.3638H47.5455V73.0001H51.1818V69.3638Z" fill="black"/>
<path d="M69.3636 69.3638H65.7273V73.0001H69.3636V69.3638Z" fill="black"/>
<path d="M73 69.3638H69.3636V73.0001H73V69.3638Z" fill="black"/>
<path d="M80.2727 69.3638H76.6364V73.0001H80.2727V69.3638Z" fill="black"/>
<path d="M83.9091 69.3638H80.2727V73.0001H83.9091V69.3638Z" fill="black"/>
<path d="M91.1818 69.3638H87.5455V73.0001H91.1818V69.3638Z" fill="black"/>
<path d="M3.9091 73H0.272736V76.6364H3.9091V73Z" fill="black"/>
<path d="M25.7273 73H22.0909V76.6364H25.7273V73Z" fill="black"/>
<path d="M29.3636 73H25.7273V76.6364H29.3636V73Z" fill="black"/>
<path d="M33 73H29.3636V76.6364H33V73Z" fill="black"/>
<path d="M36.6364 73H33V76.6364H36.6364V73Z" fill="black"/>
<path d="M40.2727 73H36.6364V76.6364H40.2727V73Z" fill="black"/>
<path d="M54.8182 73H51.1818V76.6364H54.8182V73Z" fill="black"/>
<path d="M65.7273 73H62.0909V76.6364H65.7273V73Z" fill="black"/>
<path d="M76.6364 73H73V76.6364H76.6364V73Z" fill="black"/>
<path d="M80.2727 73H76.6364V76.6364H80.2727V73Z" fill="black"/>
<path d="M83.9091 73H80.2727V76.6364H83.9091V73Z" fill="black"/>
<path d="M87.5455 73H83.9091V76.6364H87.5455V73Z" fill="black"/>
<path d="M91.1818 73H87.5455V76.6364H91.1818V73Z" fill="black"/>
<path d="M98.4546 73H94.8182V76.6364H98.4546V73Z" fill="black"/>
<path d="M102.091 73H98.4546V76.6364H102.091V73Z" fill="black"/>
<path d="M105.727 73H102.091V76.6364H105.727V73Z" fill="black"/>
<path d="M33 76.6367H29.3636V80.2731H33V76.6367Z" fill="black"/>
<path d="M36.6364 76.6367H33V80.2731H36.6364V76.6367Z" fill="black"/>
<path d="M40.2727 76.6367H36.6364V80.2731H40.2727V76.6367Z" fill="black"/>
<path d="M43.9091 76.6367H40.2727V80.2731H43.9091V76.6367Z" fill="black"/>
<path d="M47.5455 76.6367H43.9091V80.2731H47.5455V76.6367Z" fill="black"/>
<path d="M54.8182 76.6367H51.1818V80.2731H54.8182V76.6367Z" fill="black"/>
<path d="M58.4546 76.6367H54.8182V80.2731H58.4546V76.6367Z" fill="black"/>
<path d="M65.7273 76.6367H62.0909V80.2731H65.7273V76.6367Z" fill="black"/>
<path d="M69.3636 76.6367H65.7273V80.2731H69.3636V76.6367Z" fill="black"/>
<path d="M76.6364 76.6367H73V80.2731H76.6364V76.6367Z" fill="black"/>
<path d="M91.1818 76.6367H87.5455V80.2731H91.1818V76.6367Z" fill="black"/>
<path d="M94.8182 76.6367H91.1818V80.2731H94.8182V76.6367Z" fill="black"/>
<path d="M40.2727 80.2729H36.6364V83.9093H40.2727V80.2729Z" fill="black"/>
<path d="M43.9091 80.2729H40.2727V83.9093H43.9091V80.2729Z" fill="black"/>
<path d="M47.5455 80.2729H43.9091V83.9093H47.5455V80.2729Z" fill="black"/>
<path d="M58.4546 80.2729H54.8182V83.9093H58.4546V80.2729Z" fill="black"/>
<path d="M69.3636 80.2729H65.7273V83.9093H69.3636V80.2729Z" fill="black"/>
<path d="M73 80.2729H69.3636V83.9093H73V80.2729Z" fill="black"/>
<path d="M76.6364 80.2729H73V83.9093H76.6364V80.2729Z" fill="black"/>
<path d="M83.9091 80.2729H80.2727V83.9093H83.9091V80.2729Z" fill="black"/>
<path d="M91.1818 80.2729H87.5455V83.9093H91.1818V80.2729Z" fill="black"/>
<path d="M94.8182 80.2729H91.1818V83.9093H94.8182V80.2729Z" fill="black"/>
<path d="M98.4546 80.2729H94.8182V83.9093H98.4546V80.2729Z" fill="black"/>
<path d="M36.6364 83.9092H33V87.5455H36.6364V83.9092Z" fill="black"/>
<path d="M54.8182 83.9092H51.1818V87.5455H54.8182V83.9092Z" fill="black"/>
<path d="M58.4546 83.9092H54.8182V87.5455H58.4546V83.9092Z" fill="black"/>
<path d="M62.0909 83.9092H58.4546V87.5455H62.0909V83.9092Z" fill="black"/>
<path d="M69.3636 83.9092H65.7273V87.5455H69.3636V83.9092Z" fill="black"/>
<path d="M73 83.9092H69.3636V87.5455H73V83.9092Z" fill="black"/>
<path d="M76.6364 83.9092H73V87.5455H76.6364V83.9092Z" fill="black"/>
<path d="M91.1818 83.9092H87.5455V87.5455H91.1818V83.9092Z" fill="black"/>
<path d="M40.2727 87.5459H36.6364V91.1823H40.2727V87.5459Z" fill="black"/>
<path d="M43.9091 87.5459H40.2727V91.1823H43.9091V87.5459Z" fill="black"/>
<path d="M51.1818 87.5459H47.5455V91.1823H51.1818V87.5459Z" fill="black"/>
<path d="M54.8182 87.5459H51.1818V91.1823H54.8182V87.5459Z" fill="black"/>
<path d="M62.0909 87.5459H58.4546V91.1823H62.0909V87.5459Z" fill="black"/>
<path d="M73 87.5459H69.3636V91.1823H73V87.5459Z" fill="black"/>
<path d="M76.6364 87.5459H73V91.1823H76.6364V87.5459Z" fill="black"/>
<path d="M80.2727 87.5459H76.6364V91.1823H80.2727V87.5459Z" fill="black"/>
<path d="M83.9091 87.5459H80.2727V91.1823H83.9091V87.5459Z" fill="black"/>
<path d="M87.5455 87.5459H83.9091V91.1823H87.5455V87.5459Z" fill="black"/>
<path d="M91.1818 87.5459H87.5455V91.1823H91.1818V87.5459Z" fill="black"/>
<path d="M94.8182 87.5459H91.1818V91.1823H94.8182V87.5459Z" fill="black"/>
<path d="M102.091 87.5459H98.4546V91.1823H102.091V87.5459Z" fill="black"/>
<path d="M105.727 87.5459H102.091V91.1823H105.727V87.5459Z" fill="black"/>
<path d="M43.9091 91.1821H40.2727V94.8185H43.9091V91.1821Z" fill="black"/>
<path d="M47.5455 91.1821H43.9091V94.8185H47.5455V91.1821Z" fill="black"/>
<path d="M51.1818 91.1821H47.5455V94.8185H51.1818V91.1821Z" fill="black"/>
<path d="M54.8182 91.1821H51.1818V94.8185H54.8182V91.1821Z" fill="black"/>
<path d="M58.4546 91.1821H54.8182V94.8185H58.4546V91.1821Z" fill="black"/>
<path d="M62.0909 91.1821H58.4546V94.8185H62.0909V91.1821Z" fill="black"/>
<path d="M65.7273 91.1821H62.0909V94.8185H65.7273V91.1821Z" fill="black"/>
<path d="M69.3636 91.1821H65.7273V94.8185H69.3636V91.1821Z" fill="black"/>
<path d="M73 91.1821H69.3636V94.8185H73V91.1821Z" fill="black"/>
<path d="M76.6364 91.1821H73V94.8185H76.6364V91.1821Z" fill="black"/>
<path d="M94.8182 91.1821H91.1818V94.8185H94.8182V91.1821Z" fill="black"/>
<path d="M98.4546 91.1821H94.8182V94.8185H98.4546V91.1821Z" fill="black"/>
<path d="M105.727 91.1821H102.091V94.8185H105.727V91.1821Z" fill="black"/>
<path d="M40.2727 94.8184H36.6364V98.4547H40.2727V94.8184Z" fill="black"/>
<path d="M54.8182 94.8184H51.1818V98.4547H54.8182V94.8184Z" fill="black"/>
<path d="M58.4546 94.8184H54.8182V98.4547H58.4546V94.8184Z" fill="black"/>
<path d="M69.3636 94.8184H65.7273V98.4547H69.3636V94.8184Z" fill="black"/>
<path d="M80.2727 94.8184H76.6364V98.4547H80.2727V94.8184Z" fill="black"/>
<path d="M83.9091 94.8184H80.2727V98.4547H83.9091V94.8184Z" fill="black"/>
<path d="M87.5455 94.8184H83.9091V98.4547H87.5455V94.8184Z" fill="black"/>
<path d="M91.1818 94.8184H87.5455V98.4547H91.1818V94.8184Z" fill="black"/>
<path d="M94.8182 94.8184H91.1818V98.4547H94.8182V94.8184Z" fill="black"/>
<path d="M98.4546 94.8184H94.8182V98.4547H98.4546V94.8184Z" fill="black"/>
<path d="M102.091 94.8184H98.4546V98.4547H102.091V94.8184Z" fill="black"/>
<path d="M36.6364 98.4546H33V102.091H36.6364V98.4546Z" fill="black"/>
<path d="M54.8182 98.4546H51.1818V102.091H54.8182V98.4546Z" fill="black"/>
<path d="M58.4546 98.4546H54.8182V102.091H58.4546V98.4546Z" fill="black"/>
<path d="M62.0909 98.4546H58.4546V102.091H62.0909V98.4546Z" fill="black"/>
<path d="M80.2727 98.4546H76.6364V102.091H80.2727V98.4546Z" fill="black"/>
<path d="M91.1818 98.4546H87.5455V102.091H91.1818V98.4546Z" fill="black"/>
<path d="M94.8182 98.4546H91.1818V102.091H94.8182V98.4546Z" fill="black"/>
<path d="M98.4546 98.4546H94.8182V102.091H98.4546V98.4546Z" fill="black"/>
<path d="M105.727 98.4546H102.091V102.091H105.727V98.4546Z" fill="black"/>
<path d="M33 102.091H29.3636V105.728H33V102.091Z" fill="black"/>
<path d="M51.1818 102.091H47.5455V105.728H51.1818V102.091Z" fill="black"/>
<path d="M54.8182 102.091H51.1818V105.728H54.8182V102.091Z" fill="black"/>
<path d="M62.0909 102.091H58.4546V105.728H62.0909V102.091Z" fill="black"/>
<path d="M65.7273 102.091H62.0909V105.728H65.7273V102.091Z" fill="black"/>
<path d="M73 102.091H69.3636V105.728H73V102.091Z" fill="black"/>
<path d="M80.2727 102.091H76.6364V105.728H80.2727V102.091Z" fill="black"/>
<path d="M83.9091 102.091H80.2727V105.728H83.9091V102.091Z" fill="black"/>
<path d="M87.5455 102.091H83.9091V105.728H87.5455V102.091Z" fill="black"/>
<path d="M91.1818 102.091H87.5455V105.728H91.1818V102.091Z" fill="black"/>
<path d="M94.8182 102.091H91.1818V105.728H94.8182V102.091Z" fill="black"/>
<path d="M98.4546 102.091H94.8182V105.728H98.4546V102.091Z" fill="black"/>
<path d="M0.272736 17.1292V8.86386C0.272736 4.12702 4.17237 0.272949 8.96317 0.272949H17.0371C21.8276 0.272949 25.7273 4.12702 25.7273 8.86386V25.7275L8.96317 25.7224C4.17237 25.7224 0.272736 21.8686 0.272736 17.1292ZM4.09092 17.1292C4.09092 19.7622 6.27644 21.9045 8.96419 21.9045L21.9091 21.9083V8.86386C21.9091 6.23211 19.7236 4.09113 17.0371 4.09113H8.96317C6.27644 4.09113 4.09092 6.23211 4.09092 8.86386V17.1292Z" fill="black"/>
<path d="M105.727 17.1292V8.86386C105.727 4.12702 101.828 0.272949 97.0368 0.272949H88.9629C84.1724 0.272949 80.2727 4.12702 80.2727 8.86386V25.7275L97.0368 25.7224C101.828 25.7224 105.727 21.8686 105.727 17.1292ZM101.909 17.1292C101.909 19.7622 99.7236 21.9045 97.0358 21.9045L84.0909 21.9083V8.86386C84.0909 6.23211 86.2764 4.09113 88.9629 4.09113H97.0368C99.7236 4.09113 101.909 6.23211 101.909 8.86386V17.1292Z" fill="black"/>
<path d="M0.272736 88.8713V97.1366C0.272736 101.873 4.17237 105.728 8.96317 105.728H17.0371C21.8276 105.728 25.7273 101.873 25.7273 97.1366V80.273L8.96317 80.2781C4.17237 80.2781 0.272736 84.1319 0.272736 88.8713ZM4.09092 88.8713C4.09092 86.2383 6.27644 84.096 8.96419 84.096L21.9091 84.0922V97.1366C21.9091 99.7684 19.7236 101.909 17.0371 101.909H8.96317C6.27644 101.909 4.09092 99.7684 4.09092 97.1366V88.8713Z" fill="black"/>
<path d="M15.4812 18.457H10.516C10.2606 18.457 10.0129 18.4246 9.77735 18.3616C9.2559 18.2246 8.79106 17.9477 8.42255 17.5722C8.35525 17.5044 8.29099 17.4321 8.23143 17.3584C7.80783 16.8383 7.55397 16.169 7.55397 15.4426L7.55092 7.54794H15.4812C17.1144 7.54794 18.4417 8.90034 18.4417 10.5621V15.4411V15.4426L18.46 18.4554C18.46 18.4554 16.5026 18.457 15.4812 18.457Z" fill="black"/>
<path d="M95.4812 7.54346H90.516C90.2606 7.54346 90.0129 7.57586 89.7774 7.63891C89.2559 7.77593 88.7911 8.0528 88.4226 8.42829C88.3553 8.49604 88.291 8.56837 88.2314 8.64211C87.8078 9.16215 87.554 9.83153 87.554 10.5579L87.5509 18.4525H95.4812C97.1144 18.4525 98.4417 17.1001 98.4417 15.4384V10.5594V10.5579L98.46 7.54509C98.46 7.54509 96.5026 7.54346 95.4812 7.54346Z" fill="black"/>
<path d="M15.4812 87.5435H10.516C10.2606 87.5435 10.0129 87.5759 9.77735 87.6389C9.2559 87.7759 8.79106 88.0528 8.42255 88.4283C8.35525 88.496 8.29099 88.5684 8.23143 88.6421C7.80783 89.1621 7.55397 89.8315 7.55397 90.5579L7.55092 98.4525H15.4812C17.1144 98.4525 18.4417 97.1001 18.4417 95.4384V90.5594V90.5579L18.46 87.5451C18.46 87.5451 16.5026 87.5435 15.4812 87.5435Z" fill="black"/>
</svg>
