<?xml version="1.0" encoding="UTF-8"?>
<svg id="Layer_1" xmlns="http://www.w3.org/2000/svg" version="1.1" viewBox="0 0 32.6 14.8">
  <!-- Generator: Adobe Illustrator 29.1.0, SVG Export Plug-In . SVG Version: 2.1.0 Build 142)  -->
  <defs>
    <style>
      .st0 {
        fill: #fff;
      }
    </style>
  </defs>
  <path class="st0" d="M4.1,9.6c.3-.2.9-.5,1.5-.7.7-.3,1.4-.6,1.8-.9.5-.3.9-.6,1.2-1,.3-.5.5-1,.5-1.6,0-.9-.4-1.6-1.1-2.2-.8-.5-1.8-.8-3.2-.8s-2.6.3-3.4.9S.2,4.8.2,6h2.8c0-.3.2-.7.5-.9.3-.2.7-.3,1.3-.3s.9,0,1.2.2c.3.1.5.3.5.6,0,.5-.3.9-1,1.2-.3.2-.7.3-1.2.6-.8.3-1.5.7-2,1-.5.3-1,.7-1.4,1.3s-.6,1.2-.7,2v.9h8.8v-2.2H3.2c.2-.2.5-.5.8-.7h.1ZM18.9,7.5h0c1-.5,1.6-1.2,1.6-2.3,0-1.7-1.1-2.6-3.5-2.6h-6.3v9.9h6.3c1.2,0,2.1-.2,2.7-.7.6-.5.9-1.1.9-2s-.6-1.9-1.6-2.3ZM13.5,4.8h3.2c.6,0,1,.3,1,.9s-.1.5-.3.6-.5.2-.8.2h-3.1v-1.7h0ZM16.8,10.3h-3.2v-1.9h3.1c.3,0,.6.1.9.3s.3.5.3.7c0,.6-.3.9-1,.9h0ZM31.3,9.4c0-.4-.3-.7-.6-1h0c1.2-.5,1.8-1.3,1.8-2.6s-.3-1.9-1-2.4c-.7-.6-1.7-.8-3-.8h-6.3v9.9h2.8v-3.6h2.2c.6,0,1,0,1.1.2s.2.4.3.9c.1.9.4,1.5.9,1.9.5.5,1.2.6,2,.6h1v-2.2c-.7,0-1.2-.3-1.3-1h0ZM29.3,6.5c-.2.2-.5.3-.9.3h-3.5v-2h3.5c.4,0,.7.1.9.3.2.2.3.5.3.7s-.1.6-.3.7Z"/>
</svg>