<svg width="24" height="24" viewBox="0 0 24 24" fill="none" xmlns="http://www.w3.org/2000/svg">
<path d="M12.1592 11.4873C12.9697 10.7861 14.1901 10.8487 14.9248 11.6289L15.4541 12.1914C16.2305 13.0166 16.1662 14.3215 15.3135 15.0674L7.66602 21.7529C7.48377 21.9122 7.24988 22 7.00781 22H5L4.89746 21.9951C4.39339 21.9437 4 21.5176 4 21V19.0098C4.00028 18.72 4.1266 18.4436 4.3457 18.2539L12.1592 11.4873ZM13.4736 2C13.9943 2 14.4948 2.20345 14.8682 2.56641L19.3945 6.9668C19.7816 7.3433 20 7.86039 20 8.40039V20C20 21.1046 19.1046 22 18 22H13V20.5H18C18.2761 20.5 18.5 20.2761 18.5 20V8.40039C18.5 8.2654 18.4454 8.1361 18.3486 8.04199L13.8223 3.6416C13.7289 3.55086 13.6038 3.5 13.4736 3.5H6C5.72386 3.5 5.5 3.72386 5.5 4V14H4V4C4 2.89543 4.89543 2 6 2H13.4736ZM5.5 19.2373V20.5H6.82031L12.2803 15.7266L11.0645 14.4189L5.5 19.2373ZM13.832 12.6572C13.6484 12.4627 13.3431 12.4472 13.1406 12.6221L12.1992 13.4365L13.4102 14.7383L14.3262 13.9385C14.539 13.752 14.5552 13.4259 14.3613 13.2197L13.832 12.6572Z" fill="#2859FE"/>
</svg>
