<svg width="24" height="24" viewBox="0 0 24 24" fill="none" xmlns="http://www.w3.org/2000/svg">
<path d="M10.9961 3.50586C11.51 2.83374 12.4933 2.83053 13.0068 3.50293C17.2125 9.01048 18.5 11.8179 18.5 14.791C18.5 18.2201 15.5899 21 12 21C8.41015 21 5.5 18.2201 5.5 14.791C5.5 11.3289 6.81587 8.9729 10.9961 3.50586ZM12.001 4.66113C8.22351 9.62074 7.13571 11.6673 7.0127 14.2559L7 14.791C7 17.3277 9.17309 19.5 12 19.5C14.8269 19.5 17 17.3277 17 14.791C17 12.3946 16.0336 9.97649 12.001 4.66113ZM15.75 14C15.75 14.8683 15.3302 15.791 14.6982 16.4863C14.0569 17.1918 13.1172 17.75 12 17.75V16.25C12.597 16.25 13.1578 15.9506 13.5879 15.4775C14.0271 14.9944 14.25 14.4172 14.25 14H15.75Z" fill="#2859FE"/>
</svg>
