<svg width="24" height="24" viewBox="0 0 24 24" fill="none" xmlns="http://www.w3.org/2000/svg">
<path d="M11.999 12.877C12.4132 12.877 12.749 13.2128 12.749 13.627C12.749 14.0411 12.4132 14.3769 11.999 14.377H8.28125C7.86706 14.377 7.53125 14.0411 7.53125 13.627C7.53125 13.2128 7.86706 12.877 8.28125 12.877H11.999Z" fill="#2859FE"/>
<path d="M15.7158 9.44922C16.13 9.44927 16.4658 9.78506 16.4658 10.1992C16.4658 10.6134 16.13 10.9492 15.7158 10.9492H8.28125C7.86706 10.9492 7.53125 10.6134 7.53125 10.1992C7.53125 9.78503 7.86706 9.44922 8.28125 9.44922H15.7158Z" fill="#2859FE"/>
<path fill-rule="evenodd" clip-rule="evenodd" d="M13.4736 2C13.9948 2.00006 14.4943 2.20332 14.8672 2.56641L19.3926 6.9668L19.5293 7.11426C19.8308 7.47272 19.9989 7.9281 19.999 8.40039V19.999C19.999 21.1032 19.1032 21.999 17.999 21.999H6C4.89585 21.999 4 21.1032 4 19.999V4C4 2.89586 4.89585 2 6 2H13.4736ZM6 3.5C5.72425 3.5 5.5 3.72421 5.5 4V19.999C5.5 20.2748 5.72425 20.499 6 20.499H17.999C18.2748 20.499 18.499 20.2748 18.499 19.999V8.40039C18.4989 8.26641 18.4441 8.13672 18.3477 8.04297L13.8213 3.6416C13.7284 3.5511 13.604 3.50006 13.4736 3.5H6Z" fill="#2859FE"/>
</svg>
