<svg width="24" height="24" viewBox="0 0 24 24" fill="none" xmlns="http://www.w3.org/2000/svg">
<path fill-rule="evenodd" clip-rule="evenodd" d="M12 2C17.5228 2 22 6.47715 22 12C22 17.5228 17.5228 22 12 22C6.47715 22 2 17.5228 2 12C2 6.47715 6.47715 2 12 2ZM8.5166 12.75C8.6073 15.0162 9.10205 16.9931 9.80566 18.4004C10.6308 20.0506 11.4935 20.5 12 20.5C12.5065 20.5 13.3692 20.0506 14.1943 18.4004C14.8979 16.9931 15.3927 15.0162 15.4834 12.75H8.5166ZM3.53516 12.75C3.82332 16.0452 5.9911 18.7993 8.95996 19.9375C7.86186 18.2522 7.12414 15.6768 7.01562 12.75H3.53516ZM16.9844 12.75C16.8759 15.677 16.1373 18.2522 15.0391 19.9375C18.0084 18.7995 20.1767 16.0455 20.4648 12.75H16.9844ZM15.0391 4.06152C16.1376 5.74677 16.8758 8.32259 16.9844 11.25H20.4648C20.1766 7.95438 18.0085 5.19947 15.0391 4.06152ZM12 3.5C11.4935 3.5 10.6308 3.94942 9.80566 5.59961C9.10205 7.00687 8.6073 8.98385 8.5166 11.25H15.4834C15.3927 8.98385 14.8979 7.00687 14.1943 5.59961C13.3692 3.94942 12.5065 3.5 12 3.5ZM8.95996 4.06152C5.99094 5.19967 3.82333 7.95469 3.53516 11.25H7.01562C7.12415 8.32285 7.86161 5.74678 8.95996 4.06152Z" fill="#2859FE"/>
</svg>
