<svg width="24" height="24" viewBox="0 0 24 24" fill="none" xmlns="http://www.w3.org/2000/svg">
<path fill-rule="evenodd" clip-rule="evenodd" d="M15.6807 3.5733C16.4588 2.809 17.7064 2.80888 18.4844 3.5733L23.3984 8.40435C24.215 9.20706 24.1923 10.5306 23.3486 11.3047L17.5488 16.6241L17.5606 16.5489C17.4334 16.6955 17.2908 16.833 17.1309 16.9571L14.5576 18.9551L14.3691 19.0938C12.4683 20.4329 9.88897 20.2822 8.15723 18.7305L7.98633 18.5704L0.59766 11.3067C-0.199033 10.5229 -0.199407 9.23769 0.59766 8.45415L5.56348 3.5733C6.34156 2.80891 7.58912 2.8089 8.36719 3.5733L12.0234 7.16802L15.6807 3.5733ZM3.75293 12.3047L9.03809 17.501C10.2877 18.7294 12.2534 18.8439 13.6377 17.7696L16.2109 15.7725C16.9283 15.2158 16.9903 14.1542 16.3428 13.5176L15.3057 12.4981C15.0354 12.2524 14.6473 12.1682 14.2939 12.296L10.8838 13.5303L10.75 13.5733C10.0771 13.7636 9.34848 13.5802 8.84473 13.085C8.11356 12.3657 8.06798 11.2154 8.70801 10.4424L8.84473 10.293L10.9531 8.21978L9.38184 6.67583L3.75293 12.3047ZM9.89649 11.3624C9.71407 11.5417 9.7142 11.8363 9.89649 12.0157C10.0221 12.1392 10.2074 12.1791 10.373 12.1192L13.7842 10.8858L13.9805 10.8233C14.8088 10.5985 15.6886 10.8182 16.3145 11.3868L16.3301 11.4014C16.3515 11.4212 16.3737 11.4403 16.3945 11.461L16.3926 11.462L17.3945 12.4483L17.5117 12.5704C17.8832 12.9782 18.1204 13.4614 18.2266 13.9649L20.1416 12.2081L14.6357 6.7022L9.89649 11.3624ZM7.31543 4.64361C7.12088 4.45266 6.80872 4.4525 6.61426 4.64361L1.64942 9.52447C1.45036 9.72032 1.45044 10.0415 1.64942 10.2374L2.68262 11.254L8.3125 5.62408L7.31543 4.64361ZM17.4326 4.64361C17.2381 4.45262 16.9259 4.45263 16.7314 4.64361L15.7061 5.65142L21.2481 11.1934L22.334 10.1993C22.5447 10.0057 22.5508 9.67432 22.3467 9.47369L17.4326 4.64361Z" fill="#2859FE"/>
</svg>
