<svg width="24" height="24" viewBox="0 0 24 24" fill="none" xmlns="http://www.w3.org/2000/svg">
<path d="M11.5516 13.3166C13.6991 12.9035 14.6099 15.9403 12.5887 16.7765L10.9862 17.4376L14.1991 17.422L17.6658 14.2912C19.2744 12.8385 21.5714 15.0255 20.1961 16.7033L16.5164 21.1925C16.4178 21.3129 16.2815 21.3973 16.1297 21.4318C13.4146 22.046 10.6502 22.4069 7.87288 22.5187L7.33675 23.338C7.12491 23.661 6.69125 23.7517 6.368 23.5402C6.04456 23.3284 5.95408 22.8939 6.16585 22.5705L6.89827 21.4523L6.94808 21.3849C7.0751 21.2343 7.26121 21.1433 7.46077 21.1369C10.194 21.0488 12.9148 20.7043 15.5887 20.1144L19.1131 15.8156C19.2033 15.7055 19.2123 15.6213 19.2059 15.5636C19.1979 15.4927 19.159 15.4077 19.0838 15.3361C19.0087 15.2646 18.9226 15.2294 18.8514 15.2248C18.7935 15.221 18.7099 15.2341 18.6043 15.3292L14.9393 18.6398C14.8116 18.7552 14.6456 18.8196 14.4735 18.8205L10.743 18.839C9.26186 18.8463 8.8496 16.8068 10.2196 16.2404L12.0535 15.4826C12.1971 15.4231 12.2565 15.3435 12.285 15.2755C12.318 15.1963 12.3258 15.0898 12.2928 14.9796C12.2597 14.8696 12.195 14.7854 12.1239 14.7375C12.0627 14.6963 11.9691 14.6622 11.8162 14.6916L8.60628 15.3087C8.12711 15.4007 7.68445 15.6259 7.32894 15.9562L7.18245 16.1046L3.21565 20.4289C2.95432 20.7136 2.51125 20.7331 2.2264 20.4718C1.94161 20.2105 1.92313 19.7674 2.1844 19.4826L6.15023 15.1583C6.73015 14.5258 7.49848 14.0967 8.34163 13.9347L11.5516 13.3166Z" fill="#2859FE"/>
<path fill-rule="evenodd" clip-rule="evenodd" d="M15.5819 1.99136C16.5944 1.39027 17.9206 0.807596 19.2362 1.06069L19.2352 1.06167C20.8716 1.37494 22.3326 2.7834 22.3328 4.91226C22.3328 7.07209 20.8696 8.89419 19.4588 10.1681C18.0186 11.4686 16.458 12.3549 15.9383 12.6349C15.7164 12.7544 15.4493 12.7544 15.2274 12.6349C14.7079 12.355 13.1473 11.4687 11.7069 10.1681C10.2961 8.89418 8.83284 7.07219 8.83284 4.91226C8.83306 2.78503 10.2938 1.37394 11.9305 1.06069C13.2463 0.80958 14.5701 1.39175 15.5819 1.99136ZM18.953 2.53433C18.0904 2.36831 17.0356 2.83103 15.9881 3.50405C15.7414 3.66249 15.4244 3.66228 15.1776 3.50405C14.1299 2.83241 13.0765 2.36931 12.2117 2.53433C11.2254 2.72327 10.3331 3.56111 10.3328 4.91226C10.3328 6.40344 11.3717 7.8447 12.7117 9.05483C13.7794 10.0188 14.9347 10.7391 15.5828 11.1125C16.2311 10.7391 17.3864 10.0187 18.4539 9.05483C19.7939 7.84474 20.8328 6.40337 20.8328 4.91226C20.8326 3.55992 19.9395 2.72337 18.953 2.53433Z" fill="#2859FE"/>
</svg>
