<svg width="30" height="25" viewBox="0 0 30 25" fill="none" xmlns="http://www.w3.org/2000/svg">
<path d="M20.4453 0.819336C22.2242 0.819336 24.4125 1.5271 26.1621 2.94141C27.9254 4.36681 29.2587 6.52479 29.2588 9.40625C29.2588 12.3292 27.4126 14.7589 25.5 16.6572C24.5366 17.6135 23.5269 18.4629 22.6865 19.1855C21.8233 19.9279 21.1793 20.5043 20.8613 20.9531L20.4424 21.5439L20.0273 20.9502C19.8203 20.6543 19.4597 20.2914 18.9648 19.8467C18.6192 19.5361 18.2313 19.2048 17.8096 18.8438C16.2846 22.4324 12.4121 24.1747 9.63965 24.1748C7.86059 24.1748 5.67225 23.4647 3.92285 22.0498C2.15974 20.6237 0.826193 18.4654 0.826172 15.5869C0.826278 12.6671 2.67254 10.2378 4.58496 8.33887C5.54836 7.38226 6.55804 6.53276 7.39844 5.80957C8.26165 5.06674 8.90559 4.48998 9.22363 4.04102L9.64258 3.44922L10.0576 4.04297C10.2646 4.33899 10.625 4.70257 11.1201 5.14746C11.4656 5.45784 11.853 5.78859 12.2744 6.14941C13.7994 2.56072 17.6729 0.819343 20.4453 0.819336Z" fill="white"/>
<path fill-rule="evenodd" clip-rule="evenodd" d="M9.63965 4.33594C11.0955 6.38116 17.9432 10.1744 17.9434 15.5869C17.9434 20.9997 12.9584 23.664 9.63965 23.6641C6.32086 23.6641 1.33594 20.9934 1.33594 15.5869C1.33609 10.1808 8.19063 6.38113 9.63965 4.33594ZM9.63965 9.53516C7.76301 11.148 5.16226 13.4773 5.16211 15.5869C5.16211 16.8837 5.66927 17.9547 6.67676 18.7676C7.66447 19.5675 8.87584 19.9229 9.63965 19.9229C10.4035 19.9228 11.6148 19.5611 12.6025 18.7676C13.6034 17.9482 14.1172 16.8837 14.1172 15.5869C14.117 13.4708 11.5163 11.148 9.63965 9.53516Z" fill="url(#paint0_linear_12_76)"/>
<path fill-rule="evenodd" clip-rule="evenodd" d="M20.4453 1.3291C23.7641 1.3291 28.7489 3.99348 28.749 9.40625C28.749 14.8192 21.894 18.613 20.4453 20.6582C18.9966 18.613 12.1416 14.8192 12.1416 9.40625C12.1417 3.99354 17.1266 1.32915 20.4453 1.3291ZM20.4453 4.82617C17.9723 4.82617 15.9678 6.78997 15.9678 9.21289C15.9678 11.6358 17.9723 13.5996 20.4453 13.5996C22.9183 13.5996 24.9229 11.6358 24.9229 9.21289C24.9228 6.78998 22.9183 4.8262 20.4453 4.82617Z" fill="url(#paint1_linear_12_76)"/>
<path d="M12.504 7.0129C12.2735 7.74193 12.1418 8.53548 12.1418 9.40645C12.1418 12.9871 15.138 15.8581 17.5876 17.9806C17.818 17.2516 17.9497 16.4581 17.9497 15.5871C17.9497 12.0065 14.9536 9.13548 12.504 7.0129Z" fill="#AA53C4"/>
<defs>
<linearGradient id="paint0_linear_12_76" x1="-0.9161" y1="6.5742" x2="13.2038" y2="18.5938" gradientUnits="userSpaceOnUse">
<stop stop-color="#0E6EDB"/>
<stop offset="0.5" stop-color="#22C4F7"/>
<stop offset="1" stop-color="#0E6EDB"/>
</linearGradient>
<linearGradient id="paint1_linear_12_76" x1="13.63" y1="5.53548" x2="21.6281" y2="11.1788" gradientUnits="userSpaceOnUse">
<stop stop-color="#FFCB1D"/>
<stop offset="0.5" stop-color="#FFDB57"/>
<stop offset="1" stop-color="#FEB609"/>
</linearGradient>
</defs>
</svg>
