<svg width="24" height="24" viewBox="0 0 24 24" fill="none" xmlns="http://www.w3.org/2000/svg">
<path d="M21.1025 4.00488C21.6067 4.05621 22 4.48232 22 5V17C22 18.6051 20.7394 19.9158 19.1543 19.9961L19 20H5L4.8457 19.9961C3.26055 19.9158 2 18.6051 2 17V5C2 4.44772 2.44772 4 3 4H21L21.1025 4.00488ZM12.5059 14.7725C12.2194 15.034 11.7806 15.034 11.4941 14.7725L3.5 7.47168V17C3.5 17.8284 4.17157 18.5 5 18.5H19C19.8284 18.5 20.5 17.8284 20.5 17V7.47168L12.5059 14.7725ZM12 13.2021L20.4355 5.5H3.56445L12 13.2021Z" fill="#2859FE"/>
</svg>
