<svg width="24" height="24" viewBox="0 0 24 24" fill="none" xmlns="http://www.w3.org/2000/svg">
<path d="M12 22C11.8483 22.0014 11.6999 21.9548 11.5768 21.8668C11.2671 21.6722 4 16.8275 4 10.938C4 8.83269 4.84286 6.81364 6.34314 5.32498C7.84344 3.83632 9.87827 3 12 3C14.1217 3 16.1566 3.83632 17.6569 5.32498C19.1572 6.81364 20 8.83269 20 10.938C20 16.8275 12.7742 21.6722 12.4232 21.8668C12.3001 21.9548 12.1517 22.0014 12 22ZM12 4.58759C10.2962 4.58215 8.65982 5.24782 7.4502 6.43846C6.24058 7.6291 5.55658 9.24738 5.54839 10.938C5.54839 15.2501 10.4929 19.1935 12 20.2895C13.5071 19.1935 18.4516 15.2501 18.4516 10.938C18.4435 9.24738 17.7594 7.6291 16.5498 6.43846C15.3402 5.24782 13.7038 4.58215 12 4.58759Z" fill="#2859FE"/>
<circle cx="12" cy="11" r="3" fill="#2859FE"/>
</svg>
