<svg width="681" height="516" viewBox="0 0 681 516" fill="none" xmlns="http://www.w3.org/2000/svg">
<g clip-path="url(#clip0_86_815)">
<rect width="681" height="515.614" fill="white"/>
<path d="M334.759 -80.2612C268.238 -80.2612 173.725 -34.4658 144.947 58.3839C114.91 31.788 88.3332 10.0706 76.696 -6.92563C42.099 42.9614 -121.608 135.654 -121.608 267.532C-121.608 399.41 -2.5627 464.562 76.696 464.562C143.217 464.562 237.73 418.767 266.508 325.917C296.545 352.513 323.121 374.23 334.759 391.227C369.356 341.34 533.063 248.805 533.063 116.769C533.063 -15.2664 414.017 -80.2612 334.759 -80.2612Z" fill="white" stroke="white" stroke-width="2.48079" stroke-miterlimit="10"/>
<path d="M76.6951 464.561C155.954 464.561 274.999 399.566 274.999 267.53C274.999 135.495 111.449 42.9599 76.6951 -6.92719C42.0981 42.9599 -121.609 135.652 -121.609 267.53C-121.609 399.408 -2.56356 464.561 76.6951 464.561Z" fill="url(#paint0_linear_86_815)"/>
<path style="mix-blend-mode:overlay" d="M76.6951 464.561C155.954 464.561 274.999 399.566 274.999 267.53C274.999 135.495 111.449 42.9599 76.6951 -6.92719C42.0981 42.9599 -121.609 135.652 -121.609 267.53C-121.609 399.408 -2.56356 464.561 76.6951 464.561Z" fill="url(#paint1_radial_86_815)"/>
<path d="M76.6925 373.285C58.4504 373.285 29.5147 364.63 5.92575 345.116C-18.1349 325.287 -30.2439 299.163 -30.2439 267.531C-30.2439 216.07 31.8735 159.259 76.6925 119.916C121.511 159.259 183.629 215.913 183.629 267.531C183.629 299.163 171.363 325.13 147.459 345.116C123.87 364.473 94.9345 373.285 76.6925 373.285Z" fill="white"/>
<path d="M334.763 -80.2615C255.504 -80.2615 136.459 -15.2667 136.459 116.769C136.459 248.804 300.166 341.339 334.763 391.226C369.36 341.339 533.067 248.804 533.067 116.769C533.067 -15.2667 414.021 -80.2615 334.763 -80.2615Z" fill="url(#paint2_linear_86_815)"/>
<path style="mix-blend-mode:overlay" d="M334.763 -80.2615C255.504 -80.2615 136.459 -15.2667 136.459 116.769C136.459 248.804 300.166 341.339 334.763 391.226C369.36 341.339 533.067 248.804 533.067 116.769C533.067 -15.2667 414.021 -80.2615 334.763 -80.2615Z" fill="url(#paint3_radial_86_815)"/>
<path d="M334.759 219.057C393.818 219.057 441.696 171.145 441.696 112.043C441.696 52.9417 393.818 5.03021 334.759 5.03021C275.7 5.03021 227.823 52.9417 227.823 112.043C227.823 171.145 275.7 219.057 334.759 219.057Z" fill="white"/>
<path d="M145.108 58.383C139.604 76.1661 136.459 95.5229 136.459 116.768C136.459 204.11 208.012 274.141 266.512 325.916C272.017 308.133 275.162 288.776 275.162 267.531C275.162 180.189 203.609 110.159 145.108 58.383Z" fill="#9767A8"/>
<g style="mix-blend-mode:overlay">
<path d="M145.108 58.383C139.604 76.1661 136.459 95.5229 136.459 116.768C136.459 204.11 208.012 274.141 266.512 325.916C272.017 308.133 275.162 288.776 275.162 267.531C275.162 180.189 203.609 110.159 145.108 58.383Z" fill="#9767A8"/>
</g>
<path d="M644.628 454.759C644.628 458.984 643.892 462.914 642.422 466.551C640.978 470.187 638.933 473.355 636.286 476.056C633.639 478.729 630.444 480.828 626.701 482.352C622.984 483.876 618.853 484.638 614.308 484.638C609.763 484.638 605.618 483.876 601.875 482.352C598.132 480.828 594.924 478.729 592.25 476.056C589.603 473.355 587.544 470.187 586.074 466.551C584.63 462.914 583.908 458.984 583.908 454.759C583.908 450.535 584.63 446.605 586.074 442.968C587.544 439.332 589.603 436.177 592.25 433.504C594.924 430.83 598.132 428.731 601.875 427.207C605.618 425.683 609.763 424.921 614.308 424.921C618.853 424.921 622.984 425.696 626.701 427.247C630.444 428.771 633.639 430.87 636.286 433.544C638.933 436.217 640.978 439.372 642.422 443.009C643.892 446.645 644.628 450.562 644.628 454.759ZM630.751 454.759C630.751 451.872 630.377 449.278 629.628 446.979C628.88 444.653 627.797 442.688 626.38 441.083C624.989 439.479 623.278 438.249 621.246 437.394C619.214 436.538 616.901 436.11 614.308 436.11C611.688 436.11 609.348 436.538 607.289 437.394C605.257 438.249 603.533 439.479 602.116 441.083C600.726 442.688 599.656 444.653 598.907 446.979C598.159 449.278 597.784 451.872 597.784 454.759C597.784 457.674 598.159 460.294 598.907 462.62C599.656 464.92 600.726 466.871 602.116 468.476C603.533 470.08 605.257 471.31 607.289 472.165C609.348 472.994 611.688 473.409 614.308 473.409C616.901 473.409 619.214 472.994 621.246 472.165C623.278 471.31 624.989 470.08 626.38 468.476C627.797 466.871 628.88 464.92 629.628 462.62C630.377 460.294 630.751 457.674 630.751 454.759Z" fill="url(#paint4_radial_86_815)"/>
<path d="M581.72 436.311H565.277V483.996H551.721V436.311H535.278V425.563H581.72V436.311Z" fill="url(#paint5_radial_86_815)"/>
<path d="M533.162 454.759C533.162 458.984 532.427 462.914 530.957 466.551C529.513 470.187 527.467 473.355 524.82 476.056C522.173 478.729 518.978 480.828 515.235 482.352C511.519 483.876 507.388 484.638 502.843 484.638C498.297 484.638 494.153 483.876 490.41 482.352C486.667 480.828 483.458 478.729 480.785 476.056C478.138 473.355 476.079 470.187 474.608 466.551C473.165 462.914 472.443 458.984 472.443 454.759C472.443 450.535 473.165 446.605 474.608 442.968C476.079 439.332 478.138 436.177 480.785 433.504C483.458 430.83 486.667 428.731 490.41 427.207C494.153 425.683 498.297 424.921 502.843 424.921C507.388 424.921 511.519 425.696 515.235 427.247C518.978 428.771 522.173 430.87 524.82 433.544C527.467 436.217 529.513 439.372 530.957 443.009C532.427 446.645 533.162 450.562 533.162 454.759ZM519.286 454.759C519.286 451.872 518.912 449.278 518.163 446.979C517.414 444.653 516.331 442.688 514.914 441.083C513.524 439.479 511.813 438.249 509.781 437.394C507.749 436.538 505.436 436.11 502.843 436.11C500.222 436.11 497.883 436.538 495.824 437.394C493.792 438.249 492.068 439.479 490.651 441.083C489.26 442.688 488.191 444.653 487.442 446.979C486.693 449.278 486.319 451.872 486.319 454.759C486.319 457.674 486.693 460.294 487.442 462.62C488.191 464.92 489.26 466.871 490.651 468.476C492.068 470.08 493.792 471.31 495.824 472.165C497.883 472.994 500.222 473.409 502.843 473.409C505.436 473.409 507.749 472.994 509.781 472.165C511.813 471.31 513.524 470.08 514.914 468.476C516.331 466.871 517.414 464.92 518.163 462.62C518.912 460.294 519.286 457.674 519.286 454.759Z" fill="url(#paint6_radial_86_815)"/>
<path d="M443.549 466.992C445.18 466.938 446.677 466.564 448.041 465.869C449.431 465.147 450.621 464.184 451.61 462.981C452.626 461.778 453.415 460.374 453.976 458.77C454.538 457.166 454.819 455.441 454.819 453.596C454.819 451.752 454.538 450.04 453.976 448.463C453.415 446.859 452.626 445.455 451.61 444.252C450.621 443.049 449.431 442.086 448.041 441.364C446.677 440.642 445.18 440.255 443.549 440.201V466.992ZM430.715 440.201C429.058 440.255 427.534 440.642 426.143 441.364C424.78 442.086 423.603 443.049 422.614 444.252C421.625 445.455 420.849 446.859 420.288 448.463C419.726 450.04 419.446 451.752 419.446 453.596C419.446 455.441 419.726 457.166 420.288 458.77C420.849 460.374 421.625 461.778 422.614 462.981C423.603 464.184 424.78 465.147 426.143 465.869C427.534 466.564 429.058 466.938 430.715 466.992V440.201ZM443.549 430.135C447.078 430.268 450.354 430.977 453.375 432.26C456.396 433.517 459.016 435.201 461.236 437.314C463.455 439.426 465.193 441.872 466.449 444.653C467.706 447.434 468.334 450.415 468.334 453.596C468.334 456.778 467.706 459.773 466.449 462.58C465.193 465.361 463.455 467.807 461.236 469.919C459.016 472.032 456.396 473.729 453.375 475.013C450.354 476.269 447.078 476.965 443.549 477.098V483.996H430.715V477.098C427.186 476.965 423.911 476.269 420.889 475.013C417.868 473.729 415.234 472.032 412.989 469.919C410.769 467.807 409.031 465.361 407.775 462.58C406.518 459.773 405.89 456.778 405.89 453.596C405.89 450.415 406.518 447.434 407.775 444.653C409.031 441.872 410.769 439.426 412.989 437.314C415.208 435.201 417.828 433.517 420.849 432.26C423.897 430.977 427.186 430.268 430.715 430.135V423.277H443.549V430.135Z" fill="url(#paint7_radial_86_815)"/>
<path d="M645.717 356.05H629.273V403.736H615.718V356.05H599.274V345.302H645.717V356.05Z" fill="url(#paint8_radial_86_815)"/>
<path d="M571.382 355.729V369.365H589.75V379.392H571.382V393.308H595.365V403.736H557.746V345.302H595.365V355.729H571.382Z" fill="url(#paint9_radial_86_815)"/>
<path d="M546.409 345.302V403.736H532.773V379.031H509.03V403.736H495.395V345.302H509.03V369.726H532.773V345.302H546.409Z" fill="url(#paint10_radial_86_815)"/>
</g>
<defs>
<linearGradient id="paint0_linear_86_815" x1="-175.392" y1="47.681" x2="167.793" y2="333.699" gradientUnits="userSpaceOnUse">
<stop stop-color="#2B76BB"/>
<stop offset="0.5" stop-color="#44B1E6"/>
<stop offset="1" stop-color="#2B76BB"/>
</linearGradient>
<radialGradient id="paint1_radial_86_815" cx="0" cy="0" r="1" gradientUnits="userSpaceOnUse" gradientTransform="translate(-18.7613 82.6177) scale(297.377 297.591)">
<stop stop-color="#48B2E5"/>
<stop offset="1" stop-color="#2B76BB"/>
</radialGradient>
<linearGradient id="paint2_linear_86_815" x1="171.999" y1="22.3453" x2="365.675" y2="156.139" gradientUnits="userSpaceOnUse">
<stop stop-color="#F59E22"/>
<stop offset="0.5" stop-color="#FAC075"/>
<stop offset="1" stop-color="#F59E22"/>
</linearGradient>
<radialGradient id="paint3_radial_86_815" cx="0" cy="0" r="1" gradientUnits="userSpaceOnUse" gradientTransform="translate(239.306 9.28336) scale(297.377 297.591)">
<stop stop-color="#FAC075"/>
<stop offset="1" stop-color="#F59E22"/>
</radialGradient>
<radialGradient id="paint4_radial_86_815" cx="0" cy="0" r="1" gradientUnits="userSpaceOnUse" gradientTransform="translate(466.806 363.69) scale(182.362 101.317)">
<stop stop-color="#48B2E5"/>
<stop offset="1" stop-color="#2B76BB"/>
</radialGradient>
<radialGradient id="paint5_radial_86_815" cx="0" cy="0" r="1" gradientUnits="userSpaceOnUse" gradientTransform="translate(466.806 363.69) scale(182.362 101.317)">
<stop stop-color="#48B2E5"/>
<stop offset="1" stop-color="#2B76BB"/>
</radialGradient>
<radialGradient id="paint6_radial_86_815" cx="0" cy="0" r="1" gradientUnits="userSpaceOnUse" gradientTransform="translate(466.806 363.69) scale(182.362 101.317)">
<stop stop-color="#48B2E5"/>
<stop offset="1" stop-color="#2B76BB"/>
</radialGradient>
<radialGradient id="paint7_radial_86_815" cx="0" cy="0" r="1" gradientUnits="userSpaceOnUse" gradientTransform="translate(466.805 363.69) scale(182.362 101.317)">
<stop stop-color="#48B2E5"/>
<stop offset="1" stop-color="#2B76BB"/>
</radialGradient>
<radialGradient id="paint8_radial_86_815" cx="0" cy="0" r="1" gradientUnits="userSpaceOnUse" gradientTransform="translate(466.805 363.69) scale(182.362 101.317)">
<stop stop-color="#48B2E5"/>
<stop offset="1" stop-color="#2B76BB"/>
</radialGradient>
<radialGradient id="paint9_radial_86_815" cx="0" cy="0" r="1" gradientUnits="userSpaceOnUse" gradientTransform="translate(466.806 363.69) scale(182.362 101.317)">
<stop stop-color="#48B2E5"/>
<stop offset="1" stop-color="#2B76BB"/>
</radialGradient>
<radialGradient id="paint10_radial_86_815" cx="0" cy="0" r="1" gradientUnits="userSpaceOnUse" gradientTransform="translate(466.806 363.69) scale(182.362 101.317)">
<stop stop-color="#48B2E5"/>
<stop offset="1" stop-color="#2B76BB"/>
</radialGradient>
<clipPath id="clip0_86_815">
<rect width="681" height="515.614" fill="white"/>
</clipPath>
</defs>
</svg>
