<svg width="24" height="24" viewBox="0 0 24 24" fill="none" xmlns="http://www.w3.org/2000/svg">
<path d="M12 0.00012207C18.6274 0.00012207 24 5.37271 24 12.0001C23.9999 18.6274 18.6273 24.0001 12 24.0001C5.37266 24.0001 0.000131945 18.6274 0 12.0001C0 5.37271 5.37258 0.00012207 12 0.00012207ZM9.71094 12.421C9.19009 12.0929 8.503 12.2494 8.17383 12.7687C8.17383 12.7698 8.17296 12.771 8.17188 12.7716C7.84344 13.2926 7.9997 13.9811 8.52051 14.3097L8.52246 14.3107C9.20219 14.7382 9.9507 15.0495 10.7344 15.2267L8.60254 17.3575C8.16763 17.7851 8.16029 18.4832 8.58594 18.9181L8.60352 18.9366C8.81513 19.1544 9.10226 19.2628 9.3877 19.2628C9.67369 19.2628 9.95969 19.1544 10.1719 18.9366L12.2764 16.8429L14.3701 18.9386C14.813 19.3661 15.5211 19.3538 15.9492 18.9103C16.3658 18.4779 16.366 17.7922 15.9492 17.3605L13.8174 15.2277C14.6016 15.0493 15.3513 14.7398 16.0322 14.3116C16.545 13.9683 16.683 13.2738 16.3398 12.7609C16.0101 12.2679 15.3528 12.1193 14.8418 12.421C13.2731 13.4022 11.2796 13.4022 9.71094 12.421ZM12.2764 4.49915C10.1758 4.49922 8.46604 6.20986 8.46582 8.31165C8.4689 10.4155 10.1732 12.1199 12.2764 12.1212C14.3801 12.1187 16.0848 10.4138 16.0879 8.31067C16.0878 6.21005 14.377 4.49924 12.2764 4.49915ZM12.2764 6.73254C13.1473 6.73387 13.8528 7.44136 13.8535 8.31165C13.8533 9.1825 13.1472 9.88747 12.2764 9.88879C11.406 9.88749 10.7001 9.18267 10.6982 8.31165C10.6997 7.44024 11.4061 6.73446 12.2764 6.73254Z" fill="white"/>
</svg>
