<svg width="24" height="24" viewBox="0 0 24 24" fill="none" xmlns="http://www.w3.org/2000/svg">
<path d="M15.5 7C16.3284 7 17 7.67157 17 8.5C17 9.32843 16.3284 10 15.5 10C14.6716 10 14 9.32843 14 8.5C14 7.67157 14.6716 7 15.5 7Z" fill="#2859FE"/>
<path fill-rule="evenodd" clip-rule="evenodd" d="M19 4C20.6569 4 22 5.34315 22 7V17C22 18.6051 20.7394 19.9158 19.1543 19.9961L19 20H5L4.8457 19.9961C3.26055 19.9158 2 18.6051 2 17V7C2 5.34315 3.34315 4 5 4H19ZM3.5 14.3164V17C3.5 17.8284 4.17157 18.5 5 18.5H19C19.4443 18.5 19.8415 18.305 20.1162 17.998L14.9746 13.7129L13.4502 14.8574C13.1741 15.0645 12.7925 15.0564 12.5254 14.8379L7.51953 10.7422L3.5 14.3164ZM5 5.5C4.17157 5.5 3.5 6.17157 3.5 7V12.3096L7.00195 9.19727L7.11133 9.11621C7.37866 8.95404 7.72517 8.97364 7.97461 9.17773L13.0195 13.3057L14.5498 12.1582L14.6592 12.0898C14.9228 11.9552 15.2469 11.987 15.4805 12.1816L20.5 16.3643V7C20.5 6.17157 19.8284 5.5 19 5.5H5Z" fill="#2859FE"/>
</svg>
