<svg width="24" height="24" viewBox="0 0 24 24" fill="none" xmlns="http://www.w3.org/2000/svg">
<path fill-rule="evenodd" clip-rule="evenodd" d="M16.2041 3.01074C17.2128 3.113 18 3.96435 18 5V7H19C20.6569 7 22 8.34315 22 10V16C22 17.6051 20.7394 18.9158 19.1543 18.9961L19 19H18C18 20.0357 17.2128 20.887 16.2041 20.9893L16 21H8C6.89543 21 6 20.1046 6 19H5L4.8457 18.9961C3.26055 18.9158 2 17.6051 2 16V10C2 8.34315 3.34315 7 5 7H6V5C6 3.89543 6.89543 3 8 3H16L16.2041 3.01074ZM7.5 19C7.5 19.2761 7.72386 19.5 8 19.5H16C16.2761 19.5 16.5 19.2761 16.5 19V13.5H7.5V19ZM5 8.5C4.17157 8.5 3.5 9.17157 3.5 10V16C3.5 16.8284 4.17157 17.5 5 17.5H6V13L6.00488 12.8975C6.05278 12.427 6.42703 12.0528 6.89746 12.0049L7 12H17L17.1025 12.0049C17.6067 12.0562 18 12.4823 18 13V17.5H19C19.8284 17.5 20.5 16.8284 20.5 16V10C20.5 9.17157 19.8284 8.5 19 8.5H5ZM8 4.5C7.72386 4.5 7.5 4.72386 7.5 5V7H16.5V5C16.5 4.72386 16.2761 4.5 16 4.5H8Z" fill="#2859FE"/>
</svg>
