<svg width="24" height="24" viewBox="0 0 24 24" fill="none" xmlns="http://www.w3.org/2000/svg">
<path fill-rule="evenodd" clip-rule="evenodd" d="M11.7197 2C12.5192 2 13.7818 2.33058 15.1846 2.81445C16.6226 3.31051 18.3113 4.00526 20.0098 4.80566C20.0414 4.82056 20.0711 4.83791 20.0996 4.85645C20.1053 4.86015 20.1106 4.86431 20.1162 4.86816C20.1389 4.88385 20.1592 4.90211 20.1797 4.91992C20.1975 4.93537 20.2152 4.95073 20.2314 4.96777C20.2486 4.98581 20.2641 5.00491 20.2793 5.02441C20.2951 5.04466 20.3105 5.06508 20.3242 5.08691C20.3333 5.10143 20.3406 5.11677 20.3486 5.13184C20.3636 5.15979 20.3782 5.18784 20.3896 5.21777C20.3965 5.23592 20.4008 5.25481 20.4062 5.27344C20.4146 5.30172 20.4237 5.32981 20.4287 5.35938C20.4299 5.36619 20.4307 5.37303 20.4316 5.37988C20.4364 5.4141 20.4404 5.44884 20.4404 5.48438V9.03027C20.4404 14.1064 18.3397 17.3479 16.2139 19.3096C15.1583 20.2836 14.1035 20.937 13.3105 21.3477C12.9138 21.5531 12.5803 21.6984 12.3428 21.7939C12.2239 21.8417 12.1279 21.8774 12.0605 21.9014C12.0273 21.9132 12.0007 21.9222 11.9814 21.9287C11.972 21.9319 11.9639 21.9346 11.958 21.9365C11.955 21.9375 11.9522 21.9388 11.9502 21.9395C11.9492 21.9398 11.948 21.9402 11.9473 21.9404L11.7197 21.2256L11.9453 21.9404C11.7985 21.9867 11.6409 21.9867 11.4941 21.9404H11.4922L11.4902 21.9395C11.4882 21.9388 11.4854 21.9375 11.4824 21.9365C11.4765 21.9346 11.4687 21.932 11.459 21.9287C11.4396 21.9222 11.4126 21.9134 11.3789 21.9014C11.3115 21.8774 11.2165 21.8417 11.0977 21.7939C10.8602 21.6984 10.5268 21.5532 10.1299 21.3477C9.33698 20.937 8.2821 20.2836 7.22656 19.3096C5.10067 17.3477 3 14.106 3 9.0293V5.48438C3 5.44889 3.00304 5.41406 3.00781 5.37988C3.00879 5.37304 3.00958 5.36618 3.01074 5.35938C3.01495 5.3343 3.02266 5.3103 3.0293 5.28613C3.03619 5.26116 3.04234 5.23604 3.05176 5.21191C3.06077 5.18885 3.07282 5.1674 3.08398 5.14551C3.09496 5.12391 3.10609 5.10254 3.11914 5.08203C3.13101 5.06345 3.14381 5.04573 3.15723 5.02832C3.17325 5.00745 3.18971 4.98699 3.20801 4.96777C3.22426 4.95072 3.24198 4.93538 3.25977 4.91992C3.28028 4.90212 3.30055 4.88385 3.32324 4.86816C3.32881 4.8643 3.33417 4.86016 3.33984 4.85645C3.36854 4.83773 3.3988 4.82068 3.43066 4.80566C5.12901 4.00532 6.81697 3.31048 8.25488 2.81445C9.65765 2.33055 10.9202 2.00009 11.7197 2ZM11.7197 3.5C11.2012 3.5001 10.1571 3.745 8.74414 4.23242C7.48531 4.66667 6.00995 5.26589 4.5 5.96191V9.0293C4.5 13.6344 6.38413 16.4914 8.24316 18.207C9.18001 19.0716 10.1179 19.6524 10.8193 20.0156C11.1693 20.1969 11.4589 20.3226 11.6572 20.4023C11.6789 20.4111 11.7003 20.4182 11.7197 20.4258C11.7393 20.4181 11.7604 20.4111 11.7822 20.4023C11.9805 20.3226 12.2702 20.1968 12.6201 20.0156C13.3215 19.6524 14.2594 19.0715 15.1963 18.207C17.0554 16.4915 18.9404 13.6351 18.9404 9.03027V5.96191C17.4303 5.26577 15.9543 4.66672 14.6953 4.23242C13.2823 3.74502 12.2381 3.5 11.7197 3.5Z" fill="#2859FE"/>
</svg>
