<svg width="24" height="24" viewBox="0 0 24 24" fill="none" xmlns="http://www.w3.org/2000/svg">
<path d="M10.6568 3.58975C11.0105 2.80342 12.1272 2.80342 12.481 3.58975L14.731 8.5917L20.2554 9.24209C21.1281 9.34484 21.4536 10.4421 20.7779 11.0038L16.5699 14.5028L17.854 19.7753C18.0609 20.6246 17.1554 21.3116 16.3931 20.8837L11.5689 18.1757L6.74563 20.8837L6.6011 20.9511C5.8742 21.2252 5.09072 20.5716 5.28469 19.7753L6.56985 14.5028L2.36184 11.0038C1.68615 10.4421 2.01163 9.34486 2.8843 9.24209L8.40676 8.5917L10.6568 3.58975ZM9.4263 9.98135L4.21633 10.5946L7.52883 13.3485L8.24856 13.9481L7.01321 19.0126L11.5689 16.456L16.1245 19.0126L14.8911 13.9472L18.9224 10.5946L13.7115 9.98135L11.5689 5.21865L9.4263 9.98135Z" fill="#2859FE"/>
</svg>
