<svg width="24" height="24" viewBox="0 0 24 24" fill="none" xmlns="http://www.w3.org/2000/svg">
<path fill-rule="evenodd" clip-rule="evenodd" d="M12 0C18.6274 0 24 5.37258 24 12C24 18.6274 18.6274 24 12 24C5.37258 24 0 18.6274 0 12C0 5.37258 5.37258 0 12 0ZM4 8C4.12992 13.6216 7.24826 17 12.7148 17H13.0244V13.7842C15.0331 13.9644 16.5525 15.2883 17.1621 17H20C19.2205 14.4415 17.1718 13.0269 15.8926 12.4863C17.1718 11.8196 18.9707 10.1981 19.4004 8H16.8223C16.2626 9.78378 14.6034 11.4054 13.0244 11.5586V8H10.4463V14.2344C8.84729 13.874 6.82823 12.1261 6.73828 8H4Z" fill="white"/>
</svg>
