<svg width="24" height="24" viewBox="0 0 24 24" fill="none" xmlns="http://www.w3.org/2000/svg">
<path d="M14.4951 3.13174C15.1416 2.84012 15.907 3.04545 16.3213 3.621L16.4043 3.74991L18.249 6.95499H19C20.1045 6.95499 21 7.85045 21 8.95499V17.998C21 19.6031 19.7394 20.9137 18.1543 20.994L18 20.998H6C4.34315 20.998 3 19.6548 3 17.998V8.95499C3.00004 7.85045 3.89546 6.95499 5 6.95499H7.87695L14.3584 3.20108L14.4951 3.13174ZM5 8.45499C4.72389 8.45499 4.50004 8.67888 4.5 8.95499V17.998C4.5 18.8264 5.17157 19.498 6 19.498H18C18.8284 19.498 19.5 18.8264 19.5 17.998V16.9853H14L13.7959 16.9745C12.7872 16.8722 12 16.0209 12 14.9853V12.9667C12 11.8622 12.8955 10.9667 14 10.9667H19.5V8.95499C19.5 8.67888 19.2761 8.45499 19 8.45499H5ZM14 12.4667C13.7239 12.4667 13.5 12.6906 13.5 12.9667V14.9853C13.5 15.2614 13.7239 15.4853 14 15.4853H19.5V12.4667H14ZM10.8701 6.95499H16.5186L15.1064 4.50186L10.8701 6.95499Z" fill="#2859FE"/>
</svg>
