<svg width="24" height="24" viewBox="0 0 24 24" fill="none" xmlns="http://www.w3.org/2000/svg">
<path d="M12.0051 3C16.9756 3 21.0051 7.02944 21.0051 12C21.0051 16.9706 16.9756 21 12.0051 21C10.7874 21 9.62686 20.7566 8.56757 20.3184L3.66034 21.9678C3.28198 22.0949 2.91409 21.7496 3.01776 21.3643L4.29217 16.6396C3.47541 15.2848 3.00507 13.6974 3.00507 12C3.00507 7.02949 7.03457 3.00008 12.0051 3ZM12.0051 4.5C7.86297 4.50008 4.50507 7.85794 4.50507 12C4.50507 13.4165 4.89644 14.7373 5.57635 15.8652L5.90741 16.4131L5.74042 17.0303L4.95233 19.9502L8.09003 18.8965L8.62225 18.7178L9.14081 18.9326C10.0228 19.2975 10.989 19.5 12.0051 19.5C16.1472 19.5 19.5051 16.1421 19.5051 12C19.5051 7.85786 16.1472 4.5 12.0051 4.5ZM7.50507 10.0586C7.20329 8.67006 8.19551 7.23441 9.60663 7.50098C9.77316 7.53311 10.4076 8.82065 10.5588 9.71582C10.6566 10.2951 10.0357 10.8369 9.89471 11.1113C9.71592 11.4599 10.212 12.1478 11.134 13.0586C12.0559 13.9693 12.8422 14.2839 13.0392 14.2842C13.2358 14.2842 13.4179 14.1276 13.6447 13.8291C13.8715 13.5306 14.1281 13.0748 14.5666 13.1533C15.0051 13.2319 16.1699 14.0088 16.3967 14.1973C16.7331 15.6895 15.4451 16.4687 14.2355 16.4688C13.0259 16.4688 11.4366 15.6509 10.0002 14.2842C8.56393 12.9176 7.8226 11.5195 7.50507 10.0586Z" fill="#2859FE"/>
</svg>
